HIERARCHY
ROOT Hips
{
	OFFSET 0.00000 0.00000 0.00000
	CHANNELS 6 Xposition Yposition Zposition Zrotation Yrotation Xrotation 
	JOINT LHipJoint
	{
		OFFSET 0 0 0
		CHANNELS 3 Zrotation Yrotation Xrotation
		JOINT LeftUpLeg
		{
			OFFSET 1.48211 -1.84579 0.74791
			CHANNELS 3 Zrotation Yrotation Xrotation
			JOINT LeftLeg
			{
				OFFSET 2.56990 -7.06075 0.00000
				CHANNELS 3 Zrotation Yrotation Xrotation
				JOINT LeftFoot
				{
					OFFSET 2.57933 -7.08667 0.00000
					CHANNELS 3 Zrotation Yrotation Xrotation
					JOINT LeftToeBase
					{
						OFFSET 0.22969 -0.63106 2.10885
						CHANNELS 3 Zrotation Yrotation Xrotation
						End Site
						{
							OFFSET 0.00000 -0.00000 1.10362
						}
					}
				}
			}
		}
	}
	JOINT RHipJoint
	{
		OFFSET 0 0 0
		CHANNELS 3 Zrotation Yrotation Xrotation
		JOINT RightUpLeg
		{
			OFFSET -1.46257 -1.84580 0.74791
			CHANNELS 3 Zrotation Yrotation Xrotation
			JOINT RightLeg
			{
				OFFSET -2.63352 -7.23555 0.00000
				CHANNELS 3 Zrotation Yrotation Xrotation
				JOINT RightFoot
				{
					OFFSET -2.53360 -6.96100 0.00000
					CHANNELS 3 Zrotation Yrotation Xrotation
					JOINT RightToeBase
					{
						OFFSET -0.19079 -0.52420 2.00624
						CHANNELS 3 Zrotation Yrotation Xrotation
						End Site
						{
							OFFSET -0.00000 -0.00000 1.04369
						}
					}
				}
			}
		}
	}
	JOINT LowerBack
	{
		OFFSET 0 0 0
		CHANNELS 3 Zrotation Yrotation Xrotation
		JOINT Spine
		{
			OFFSET -0.02583 2.09021 -0.27313
			CHANNELS 3 Zrotation Yrotation Xrotation
			JOINT Spine1
			{
				OFFSET 0.02621 2.11682 -0.03538
				CHANNELS 3 Zrotation Yrotation Xrotation
				JOINT Neck
				{
					OFFSET 0 0 0
					CHANNELS 3 Zrotation Yrotation Xrotation
					JOINT Neck1
					{
						OFFSET 0.02848 1.69944 0.27193
						CHANNELS 3 Zrotation Yrotation Xrotation
						JOINT Head
						{
							OFFSET -0.09826 1.73070 -0.26626
							CHANNELS 3 Zrotation Yrotation Xrotation
							End Site
							{
								OFFSET -0.03061 1.75878 -0.12207
							}
						}
					}
				}
				JOINT LeftShoulder
				{
					OFFSET 0 0 0
					CHANNELS 3 Zrotation Yrotation Xrotation
					JOINT LeftArm
					{
						OFFSET 3.42696 0.97228 -0.33778
						CHANNELS 3 Zrotation Yrotation Xrotation
						JOINT LeftForeArm
						{
							OFFSET 5.25525 -0.00000 0.00000
							CHANNELS 3 Zrotation Yrotation Xrotation
							JOINT LeftHand
							{
								OFFSET 3.35106 -0.00000 0.00000
								CHANNELS 3 Zrotation Yrotation Xrotation
								JOINT LeftFingerBase
								{
									OFFSET 0 0 0
									CHANNELS 3 Zrotation Yrotation Xrotation
									JOINT LeftHandIndex1
									{
										OFFSET 0.57415 -0.00000 0.00000
										CHANNELS 3 Zrotation Yrotation Xrotation
										End Site
										{
											OFFSET 0.46290 -0.00000 0.00000
										}
									}
								}
								JOINT LThumb
								{
									OFFSET 0 0 0
									CHANNELS 3 Zrotation Yrotation Xrotation
									End Site
									{
										OFFSET 0.46996 -0.00000 0.46996
									}
								}
							}
						}
					}
				}
				JOINT RightShoulder
				{
					OFFSET 0 0 0
					CHANNELS 3 Zrotation Yrotation Xrotation
					JOINT RightArm
					{
						OFFSET -3.28720 1.02454 -0.32654
						CHANNELS 3 Zrotation Yrotation Xrotation
						JOINT RightForeArm
						{
							OFFSET -5.33104 -0.00000 0.00000
							CHANNELS 3 Zrotation Yrotation Xrotation
							JOINT RightHand
							{
								OFFSET -3.39883 -0.00000 0.00000
								CHANNELS 3 Zrotation Yrotation Xrotation
								JOINT RightFingerBase
								{
									OFFSET 0 0 0
									CHANNELS 3 Zrotation Yrotation Xrotation
									JOINT RightHandIndex1
									{
										OFFSET -0.91389 -0.00000 0.00000
										CHANNELS 3 Zrotation Yrotation Xrotation
										End Site
										{
											OFFSET -0.73680 -0.00000 0.00000
										}
									}
								}
								JOINT RThumb
								{
									OFFSET 0 0 0
									CHANNELS 3 Zrotation Yrotation Xrotation
									End Site
									{
										OFFSET -0.74805 -0.00000 0.74805
									}
								}
							}
						}
					}
				}
			}
		}
	}
}
MOTION
Frames: 7
Frame Time: .0083333
-3.7797 17.3551 38.2866 0 0 0 0 0 0 -21 0 0 0 0 0 0 0 0 0 0 0 0 0 0 21 0 0 0 0 0 0 0 0 0 0 0 0 0 0 0 0 0 0 0 0 0 0 -16 0 0 21 0 0 11 0 0 0 -8 0 0 0 0 0 0 0 0 0 0 0 0 0 0 0 0 0 0 0 0 8 0 0 0 0 0 0 0 0 0 0 0 0 0 0 0 0 0
-3.7797 17.3551 38.2866 -178.7280 -22.7930 176.8320 0.0000 0.0000 0.0000 -17.4196 -11.2329 -12.4048 4.4393 12.7231 38.3408 0.4237 -11.5393 -13.2058 0.1541 -2.5298 -6.9722 0.0000 0.0000 0.0000 19.8853 -0.1402 -4.6994 -3.3321 -11.2142 33.0058 -1.6061 -5.4010 -26.4061 -0.1590 -2.5693 7.0820 2.1705 1.5359 9.8627 0.2921 2.1488 1.9200 -1.1848 0.9907 -3.4581 7.7227 15.1678 -11.3308 -8.3568 20.5142 12.3455 -1.6471 9.5769 7.2807 0.0000 -0.0000 0.0000 -83.6751 -7.8163 67.0555 114.3615 -57.6342 -80.9301 -0.0000 0.0000 -21.6930 37.2587 24.8370 17.7189 -7.1250 0.0000 -0.0000 9.2331 59.9222 3.3798 0.0000 -0.0000 0.0000 77.8392 -2.6777 57.8966 -130.6905 52.7132 -94.3762 0.0000 0.0000 5.0219 -31.0130 9.6303 -5.7429 7.1250 -0.0000 -0.0000 -2.8583 -18.7888 -1.7876
-3.7264 17.3590 38.2806 -178.6250 -22.7619 176.8420 0.0000 0.0000 0.0000 -17.0821 -11.1866 -12.5686 4.4480 12.7338 38.3801 0.4197 -11.5687 -13.1756 0.1706 -2.6609 -7.3362 0.0000 0.0000 0.0000 20.1735 0.0192 -4.6703 -3.3105 -11.1814 32.8943 -1.6543 -4.9329 -26.4945 -0.3033 -3.5407 9.7879 1.5320 1.5822 9.0855 0.8951 2.1165 2.4180 -0.1675 0.9812 -2.5597 7.1227 15.2291 -11.7778 -8.8414 20.7330 12.0622 -1.6618 9.6020 7.2744 -0.0000 0.0000 0.0000 -84.7629 -8.7169 66.6972 114.1432 -57.6787 -80.7456 -0.0000 0.0000 -21.6141 36.8129 24.8040 17.4315 -7.1250 0.0000 -0.0000 8.6770 59.7664 3.1420 -0.0000 0.0000 0.0000 77.2071 -1.9071 57.5446 -130.6932 52.7121 -94.3784 0.0000 0.0000 4.8509 -31.1941 9.4691 -5.6885 7.1250 -0.0000 -0.0000 -3.0009 -18.9551 -1.8660
-3.6736 17.3634 38.2759 -178.5120 -22.6130 176.8170 0.0000 0.0000 0.0000 -16.7374 -11.0297 -12.6643 4.4398 12.7237 38.3426 0.4219 -11.6071 -13.2138 0.2108 -2.9560 -8.1563 0.0000 0.0000 0.0000 20.5021 0.2673 -4.6549 -3.2953 -11.1583 32.8158 -1.6618 -4.9162 -26.5390 -0.3575 -3.8412 10.6302 2.2352 1.5761 9.8468 0.4435 2.2148 1.8931 -1.0724 1.0227 -3.4785 7.5283 15.1714 -11.8366 -8.3314 20.5456 12.6250 -1.5637 9.5545 7.4363 -0.0000 -0.0000 0.0000 -84.1167 -8.2535 66.7697 114.1939 -57.6684 -80.7885 -0.0000 0.0000 -21.6389 36.4958 24.3607 16.9707 -7.1250 0.0000 -0.0000 8.3324 59.1765 2.8985 -0.0000 -0.0000 0.0000 78.3011 -2.7289 57.1207 -130.8578 52.6436 -94.5093 0.0000 0.0000 4.7202 -30.8555 10.1814 -6.0284 7.1250 -0.0000 -0.0000 -2.6967 -18.1713 -1.7231
-3.6246 17.3695 38.2713 -178.4170 -22.5448 176.7980 0.0000 0.0000 0.0000 -16.4920 -11.2960 -12.5716 4.4310 12.7129 38.3029 0.4438 -11.3248 -13.3323 0.2147 -2.9833 -8.2323 0.0000 0.0000 0.0000 20.7541 0.2236 -4.7397 -3.2867 -11.1453 32.7715 -1.6613 -4.7758 -26.4607 -0.3894 -4.0072 11.0968 1.5122 1.6686 9.0096 1.1594 2.2295 2.4522 0.1069 1.0355 -2.4924 6.5419 15.1110 -12.7289 -8.5166 20.6363 12.7240 -1.4151 9.4926 7.5450 -0.0000 0.0000 0.0000 -85.3140 -9.2250 66.7034 113.9506 -57.7175 -80.5828 -0.0000 0.0000 -21.4269 36.7367 24.2494 17.0425 -7.1250 0.0000 -0.0000 8.6407 59.1115 2.9933 -0.0000 0.0000 0.0000 77.4469 -1.8748 56.5759 -130.7953 52.6697 -94.4596 0.0000 0.0000 4.6061 -31.0333 10.5677 -6.2966 7.1250 -0.0000 -0.0000 -2.7844 -17.7056 -1.8078
-3.5768 17.3708 38.2653 -178.2640 -22.3432 176.7150 0.0000 0.0000 0.0000 -16.1909 -11.3609 -12.4998 4.4210 12.7005 38.2576 0.4644 -10.9253 -13.4012 0.2117 -2.9624 -8.1740 0.0000 0.0000 0.0000 21.1062 0.3993 -4.6503 -3.2791 -11.1338 32.7324 -1.6710 -4.6330 -26.4541 -0.4669 -4.3828 12.1560 2.2507 1.6396 9.6820 0.6995 2.2923 2.0452 -0.8172 1.0613 -3.2366 7.4329 15.1639 -12.0894 -8.6097 20.5733 12.4507 -1.6174 9.5343 7.4462 0.0000 -0.0000 0.0000 -84.5394 -8.7546 66.8028 114.1991 -57.6673 -80.7929 -0.0000 0.0000 -21.4517 36.4952 24.0764 16.7948 -7.1250 0.0000 -0.0000 8.3623 58.8508 2.8437 0.0000 -0.0000 0.0000 78.6540 -2.6002 56.2859 -130.9961 52.5858 -94.6192 0.0000 0.0000 4.6786 -31.2036 10.7336 -6.4363 7.1250 -0.0000 -0.0000 -2.8869 -17.4935 -1.8880
-3.5295 17.3721 38.2591 -178.3540 -22.1702 176.7360 0.0000 0.0000 0.0000 -16.1277 -11.3170 -12.4635 4.4058 12.6817 38.1882 0.4827 -10.7222 -13.5219 0.2375 -3.1366 -8.6593 0.0000 0.0000 0.0000 21.1755 0.4292 -4.6719 -3.2762 -11.1294 32.7174 -1.6584 -4.5705 -26.3315 -0.4644 -4.3712 12.1233 2.2984 1.6225 9.9065 0.6070 2.2845 1.9315 -0.9481 1.0549 -3.4735 7.4177 15.1811 -12.0946 -8.4553 20.5772 12.4956 -1.5675 9.5479 7.4424 -0.0000 0.0000 0.0000 -84.5023 -8.7779 66.7331 114.2411 -57.6588 -80.8284 -0.0000 0.0000 -21.2878 35.6860 24.0405 16.3085 -7.1250 0.0000 -0.0000 7.3837 58.6031 2.4645 -0.0000 0.0000 0.0000 79.0691 -2.7603 55.9731 -131.1125 52.5368 -94.7116 0.0000 0.0000 4.5910 -31.3668 10.9960 -6.6324 7.1250 -0.0000 -0.0000 -2.9742 -17.1703 -1.9663
